<?xml version="1.0" encoding="UTF-8" standalone="no"?>
<!-- Created with Inkscape (http://www.inkscape.org/) -->

<svg
   xmlns:dc="http://purl.org/dc/elements/1.1/"
   xmlns:cc="http://creativecommons.org/ns#"
   xmlns:rdf="http://www.w3.org/1999/02/22-rdf-syntax-ns#"
   xmlns:svg="http://www.w3.org/2000/svg"
   xmlns="http://www.w3.org/2000/svg"
   xmlns:xlink="http://www.w3.org/1999/xlink"
   xmlns:sodipodi="http://sodipodi.sourceforge.net/DTD/sodipodi-0.dtd"
   xmlns:inkscape="http://www.inkscape.org/namespaces/inkscape"
   width="744.09448819"
   height="1052.3622047"
   id="svg2"
   version="1.1"
   inkscape:version="0.48.2 r9819"
   sodipodi:docname="fire.svg">
  <defs
     id="defs4">
    <linearGradient
       id="linearGradient3785">
      <stop
         style="stop-color:#ffdf2a;stop-opacity:1;"
         offset="0"
         id="stop3787" />
      <stop
         style="stop-color:#ff7f2a;stop-opacity:1;"
         offset="1"
         id="stop3789" />
    </linearGradient>
    <linearGradient
       id="linearGradient3777">
      <stop
         style="stop-color:#ffb800;stop-opacity:1;"
         offset="0"
         id="stop3779" />
      <stop
         style="stop-color:#ff0000;stop-opacity:1;"
         offset="1"
         id="stop3781" />
    </linearGradient>
    <radialGradient
       inkscape:collect="always"
       xlink:href="#linearGradient3777"
       id="radialGradient3783"
       cx="157.7516"
       cy="169.25499"
       fx="157.7516"
       fy="169.25499"
       r="54.519833"
       gradientTransform="matrix(1.5969397,-0.05939062,0.15750167,4.2350238,-115.05915,-521.40416)"
       gradientUnits="userSpaceOnUse" />
    <radialGradient
       inkscape:collect="always"
       xlink:href="#linearGradient3785"
       id="radialGradient3793"
       cx="155.07541"
       cy="188.28185"
       fx="155.07541"
       fy="188.28185"
       r="23.394262"
       gradientTransform="matrix(1.3964439,-0.05258281,0.14270903,3.7899295,-82.538382,-496.74333)"
       gradientUnits="userSpaceOnUse" />
    <radialGradient
       inkscape:collect="always"
       xlink:href="#linearGradient3777-4"
       id="radialGradient3783-7"
       cx="157.7516"
       cy="169.25499"
       fx="157.7516"
       fy="169.25499"
       r="54.519833"
       gradientTransform="matrix(1.5907232,0.15278568,-0.40518186,4.2185378,-24.608492,-552.06162)"
       gradientUnits="userSpaceOnUse" />
    <linearGradient
       id="linearGradient3777-4">
      <stop
         style="stop-color:#ffb800;stop-opacity:1;"
         offset="0"
         id="stop3779-0" />
      <stop
         style="stop-color:#ff0000;stop-opacity:1;"
         offset="1"
         id="stop3781-9" />
    </linearGradient>
    <radialGradient
       r="54.519833"
       fy="169.25499"
       fx="157.7516"
       cy="169.25499"
       cx="157.7516"
       gradientTransform="matrix(2.1347719,0.15278568,-0.54375948,4.2185378,-87.564929,-552.33242)"
       gradientUnits="userSpaceOnUse"
       id="radialGradient3810"
       xlink:href="#linearGradient3777-4"
       inkscape:collect="always" />
  </defs>
  <sodipodi:namedview
     id="base"
     pagecolor="#ffffff"
     bordercolor="#666666"
     borderopacity="1.0"
     inkscape:pageopacity="0.0"
     inkscape:pageshadow="2"
     inkscape:zoom="1"
     inkscape:cx="171.5"
     inkscape:cy="869.26532"
     inkscape:document-units="px"
     inkscape:current-layer="layer1"
     showgrid="false"
     inkscape:window-width="1280"
     inkscape:window-height="962"
     inkscape:window-x="-8"
     inkscape:window-y="-8"
     inkscape:window-maximized="1" />
  <metadata
     id="metadata7">
    <rdf:RDF>
      <cc:Work
         rdf:about="">
        <dc:format>image/svg+xml</dc:format>
        <dc:type
           rdf:resource="http://purl.org/dc/dcmitype/StillImage" />
        <dc:title></dc:title>
      </cc:Work>
    </rdf:RDF>
  </metadata>
  <g
     inkscape:label="Layer 1"
     inkscape:groupmode="layer"
     id="layer1">
    <path
       style="fill:url(#radialGradient3783);fill-opacity:1;stroke:none"
       d="m 121.15369,209.44979 c -13.35143,-28.82247 -12.79162,-55.60827 -16.56661,-83.02871 6.70664,18.72802 10.42249,40.58308 22.96198,53.21247 -10.41616,-34.84138 -9.7983,-75.45264 4.61666,-96.243522 0.12894,19.695462 -6.66626,42.519542 5.92677,56.583222 0.55695,-27.54455 -1.86932,-56.54889 12.03239,-77.563453 1.12299,11.247746 -5.23908,25.2413 7.06298,32.388131 4.57818,-6.625282 6.34861,-24.548575 7.8218,-43.667864 6.46725,12.986044 8.9884,34.490771 7.54035,64.563986 3.80019,-6.99683 8.17623,-9.68707 10.36858,-28.708213 9.13447,18.284733 0.98413,40.062223 2.81496,61.917243 5.33658,-7.29816 13.19845,-11.54609 10.36859,-28.70822 8.80023,11.68132 0.40648,31.83327 2.09404,48.35275 15.5155,-2.81466 12.46581,-10.60531 18.06837,-16.07691 0.90599,17.89831 -3.39179,34.34541 -13.08095,49.28901 -31.08312,37.74956 -57.2859,45.08517 -82.02991,7.69008 z"
       id="path2989"
       inkscape:connector-curvature="0"
       sodipodi:nodetypes="cccccccccccccccc" />
    <path
       style="fill:url(#radialGradient3793);fill-opacity:1;stroke:none"
       d="m 135.71451,216.92015 c -7.90737,-17.07009 -7.57584,-32.93397 -9.81156,-49.1737 3.97201,11.09166 6.17271,24.0353 13.5992,31.51505 -6.16895,-20.63479 -5.80303,-44.68678 2.73422,-57.00016 0.0764,11.66462 -3.94809,25.18217 3.51013,33.51137 0.32986,-16.31323 -1.10711,-33.49104 7.12618,-45.93689 0.66508,6.66147 -3.10285,14.94915 4.18304,19.18184 2.71143,-3.92381 3.75996,-14.53888 4.63245,-25.86226 3.83022,7.69098 5.32338,20.42715 4.46577,38.23797 2.25067,-4.14387 4.84237,-5.73717 6.1408,-17.00241 5.40988,10.82911 0.58285,23.72682 1.66715,36.67045 3.16058,-4.32235 7.81676,-6.83817 6.14078,-17.00243 5.21193,6.91825 0.24075,18.85323 1.2402,28.63689 9.18904,-1.66698 7.38286,-6.28099 10.70098,-9.52155 0.53657,10.60027 -2.00879,20.34105 -7.74718,29.19139 -15.18598,22.23536 -31.05836,30.3642 -48.58216,4.55444 z"
       id="path2989-1"
       inkscape:connector-curvature="0"
       sodipodi:nodetypes="cccccccccccccccc" />
  </g>
</svg>
