<?xml version="1.0" encoding="UTF-8" standalone="no"?>
<!-- Created with Inkscape (http://www.inkscape.org/) -->

<svg
   xmlns:dc="http://purl.org/dc/elements/1.1/"
   xmlns:cc="http://creativecommons.org/ns#"
   xmlns:rdf="http://www.w3.org/1999/02/22-rdf-syntax-ns#"
   xmlns:svg="http://www.w3.org/2000/svg"
   xmlns="http://www.w3.org/2000/svg"
   xmlns:xlink="http://www.w3.org/1999/xlink"
   xmlns:sodipodi="http://sodipodi.sourceforge.net/DTD/sodipodi-0.dtd"
   xmlns:inkscape="http://www.inkscape.org/namespaces/inkscape"
   width="744.09448819"
   height="1052.3622047"
   id="svg8013"
   version="1.1"
   inkscape:version="0.48.2 r9819"
   sodipodi:docname="Tank bot.svg">
  <defs
     id="defs8015">
    <radialGradient
       inkscape:collect="always"
       xlink:href="#linearGradient7223"
       id="radialGradient7711"
       cx="-566.54083"
       cy="-81.405075"
       fx="-566.54083"
       fy="-81.405075"
       r="90.662193"
       gradientTransform="matrix(3.0491911,-3.1150553,1.2536539,1.2271469,1852.0452,-1598.5235)"
       gradientUnits="userSpaceOnUse" />
    <linearGradient
       id="linearGradient7223">
      <stop
         style="stop-color:#003c10;stop-opacity:1;"
         offset="0"
         id="stop7225" />
      <stop
         style="stop-color:#002b11;stop-opacity:1;"
         offset="1"
         id="stop7227" />
    </linearGradient>
    <radialGradient
       inkscape:collect="always"
       xlink:href="#linearGradient7792"
       id="radialGradient7983"
       cx="-532.78131"
       cy="-36.272957"
       fx="-532.78131"
       fy="-36.272957"
       r="80.662193"
       gradientTransform="matrix(0.95850911,1.6843646,-2.2516729,1.2813432,611.69589,1290.109)"
       gradientUnits="userSpaceOnUse" />
    <linearGradient
       id="linearGradient7792">
      <stop
         style="stop-color:#003c10;stop-opacity:1;"
         offset="0"
         id="stop7794" />
      <stop
         style="stop-color:#002b11;stop-opacity:1;"
         offset="1"
         id="stop7796" />
    </linearGradient>
    <radialGradient
       inkscape:collect="always"
       xlink:href="#linearGradient7395"
       id="radialGradient7985"
       cx="-398.74875"
       cy="84.734283"
       fx="-398.74875"
       fy="84.734283"
       r="140.45557"
       gradientTransform="matrix(0.40456391,0.91450973,-2.7707138,1.2257178,-60.525345,393.89483)"
       gradientUnits="userSpaceOnUse" />
    <linearGradient
       id="linearGradient7395">
      <stop
         style="stop-color:#1b2009;stop-opacity:1"
         offset="0"
         id="stop7397" />
      <stop
         style="stop-color:#253300;stop-opacity:1"
         offset="1"
         id="stop7399" />
    </linearGradient>
    <radialGradient
       r="140.45557"
       fy="84.734283"
       fx="-398.74875"
       cy="84.734283"
       cx="-398.74875"
       gradientTransform="matrix(0.40456391,0.91450973,-2.7707138,1.2257178,654.95095,852.11016)"
       gradientUnits="userSpaceOnUse"
       id="radialGradient8085"
       xlink:href="#linearGradient7395"
       inkscape:collect="always" />
    <radialGradient
       inkscape:collect="always"
       xlink:href="#linearGradient7223"
       id="radialGradient8132"
       gradientUnits="userSpaceOnUse"
       gradientTransform="matrix(3.0491911,-3.1150553,1.2536539,1.2271469,1974.4468,-1273.6649)"
       cx="-566.54083"
       cy="-81.405075"
       fx="-566.54083"
       fy="-81.405075"
       r="90.662193" />
    <radialGradient
       inkscape:collect="always"
       xlink:href="#linearGradient7223-2"
       id="radialGradient8132-1"
       gradientUnits="userSpaceOnUse"
       gradientTransform="matrix(3.0491911,-3.1150553,1.2536539,1.2271469,2044.1804,-1257.0063)"
       cx="-566.54083"
       cy="-81.405075"
       fx="-566.54083"
       fy="-81.405075"
       r="90.662193" />
    <linearGradient
       id="linearGradient7223-2">
      <stop
         style="stop-color:#6d2e19;stop-opacity:1;"
         offset="0"
         id="stop7225-1" />
      <stop
         style="stop-color:#54371b;stop-opacity:1;"
         offset="1"
         id="stop7227-4" />
    </linearGradient>
    <radialGradient
       inkscape:collect="always"
       xlink:href="#linearGradient7223-2"
       id="radialGradient7983-7"
       cx="-532.78131"
       cy="-36.272957"
       fx="-532.78131"
       fy="-36.272957"
       r="80.662193"
       gradientTransform="matrix(0.95850911,1.6843646,-2.2516729,1.2813432,681.42956,1306.7676)"
       gradientUnits="userSpaceOnUse" />
    <linearGradient
       id="linearGradient5403">
      <stop
         style="stop-color:#6d2e19;stop-opacity:1;"
         offset="0"
         id="stop5405" />
      <stop
         style="stop-color:#54371b;stop-opacity:1;"
         offset="1"
         id="stop5407" />
    </linearGradient>
    <radialGradient
       r="140.45557"
       fy="84.734283"
       fx="-398.74875"
       cy="84.734283"
       cx="-398.74875"
       gradientTransform="matrix(0.40456391,0.91450973,-2.7707138,1.2257178,515.52419,302.73427)"
       gradientUnits="userSpaceOnUse"
       id="radialGradient3032"
       xlink:href="#linearGradient7395-4"
       inkscape:collect="always" />
    <linearGradient
       id="linearGradient7395-4">
      <stop
         style="stop-color:#1b2009;stop-opacity:1"
         offset="0"
         id="stop7397-0" />
      <stop
         style="stop-color:#253300;stop-opacity:1"
         offset="1"
         id="stop7399-9" />
    </linearGradient>
    <radialGradient
       r="140.45557"
       fy="84.734283"
       fx="-398.74875"
       cy="84.734283"
       cx="-398.74875"
       gradientTransform="matrix(0.40456391,0.91450973,-2.7707138,1.2257178,724.68462,868.76881)"
       gradientUnits="userSpaceOnUse"
       id="radialGradient5420"
       xlink:href="#linearGradient7395-4"
       inkscape:collect="always" />
  </defs>
  <sodipodi:namedview
     id="base"
     pagecolor="#ffffff"
     bordercolor="#666666"
     borderopacity="1.0"
     inkscape:pageopacity="0.0"
     inkscape:pageshadow="2"
     inkscape:zoom="0.60735294"
     inkscape:cx="278.57143"
     inkscape:cy="565.71429"
     inkscape:document-units="px"
     inkscape:current-layer="layer1"
     showgrid="false"
     inkscape:window-width="469"
     inkscape:window-height="455"
     inkscape:window-x="266"
     inkscape:window-y="399"
     inkscape:window-maximized="0" />
  <metadata
     id="metadata8018">
    <rdf:RDF>
      <cc:Work
         rdf:about="">
        <dc:format>image/svg+xml</dc:format>
        <dc:type
           rdf:resource="http://purl.org/dc/dcmitype/StillImage" />
        <dc:title />
      </cc:Work>
    </rdf:RDF>
  </metadata>
  <g
     inkscape:label="Layer 1"
     inkscape:groupmode="layer"
     id="layer1">
    <rect
       style="fill:url(#radialGradient5420);fill-opacity:1;stroke:#000000;stroke-width:2;stroke-opacity:1;display:inline"
       id="rect7375"
       width="279.91113"
       height="333.88043"
       x="192.63522"
       y="342.02933" />
    <path
       style="fill:url(#radialGradient7983-7);fill-opacity:1;stroke:#000000;stroke-width:2;stroke-linecap:butt;stroke-linejoin:miter;stroke-opacity:1;display:inline"
       d="m 252.42863,342.0233 160.32437,0 0,333.89279 -160.32437,0 z"
       id="path6274"
       inkscape:connector-curvature="0"
       sodipodi:nodetypes="ccccc" />
    <path
       style="fill:none;stroke:#000000;stroke-width:2;stroke-linecap:butt;stroke-linejoin:miter;stroke-opacity:1;display:inline"
       d="m 252.42863,362.89157 0,20.86828 m -59.79338,0.0188 0,20.87469 m 59.79338,-0.0253 0,20.86828 m -59.79338,-62.59241 0,-20.87469 59.79338,-0.006 0,20.86827 -59.79338,0.0124 0,20.8747 59.79338,-0.0188 0,20.86827 -59.79338,0.0253 0,20.87469 59.79338,-0.0317 0,20.86828 m -59.79338,-20.8366 0,20.87469 59.79338,-0.0381 0,20.86827 m -59.79338,-20.83018 0,20.87469 59.79338,-0.0445 0,20.86828 m -59.79338,0.0509 0,20.87469 m 59.79338,-0.0573 0,20.86827 m -59.79339,0.0637 0,20.87468 m 59.79339,-0.0702 0,20.86829 m -59.79339,0.0766 0,20.87468 m 59.79339,-0.083 0,20.86827 m -59.79338,-146.0334 0,20.8747 59.79338,-0.0509 0,20.86827 -59.79338,0.0573 -1e-5,20.87468 59.79339,-0.0638 0,20.86828 -59.79339,0.0702 0,20.87468 59.79339,-0.0766 0,20.86827 -59.79339,0.083 0,20.87469 59.79339,-0.0894 0,20.86827 m -59.79339,-20.7788 0,20.8747 59.79339,-0.0959 0,20.86828 m -59.79339,-20.77242 0,20.87469 59.79339,-0.10227 0,20.86828 -59.79339,0.10869 0,-20.8747"
       id="path6280"
       inkscape:connector-curvature="0"
       sodipodi:nodetypes="cccccccccccccccccccccccccccccccccccccccccccccccccccccccccccccccc" />
    <path
       style="fill:none;stroke:#000000;stroke-width:2;stroke-linecap:butt;stroke-linejoin:miter;stroke-opacity:1;display:inline"
       d="m 412.753,362.89799 0,-20.87469 59.79338,-0.006 0,20.86827 -59.79338,0.0124 0,20.8747 m 59.79338,-0.0188 0,20.86827 m -59.79338,0.0253 0,20.87469 m 59.79338,-62.6365 0,20.86828 -59.79338,0.0188 0,20.87469 59.79338,-0.0253 0,20.86828 -59.79338,0.0317 0,20.87469 m 59.79338,-0.0381 0,20.86827 m 0,20.86827 0,-20.86827 -59.79338,0.0445 0,-20.8747 59.79338,-0.0381 0,-20.86827 m -59.79338,62.65574 0,20.8747 m -10e-6,20.87469 10e-6,-20.87469 59.79338,-0.0573 0,-20.86828 -59.79338,0.0509 0,-20.87469 m 59.79338,83.42858 0,20.86828 -59.79339,0.0766 0,20.87469 m 59.79339,-0.083 0,20.86826 m 0,-41.73654 0,20.86828 -59.79339,0.083 0,20.87469 59.79339,-0.0894 0,20.86827 m -59.79339,0.0959 0,20.87469 m 59.79339,-0.10227 0,20.86827 -59.79339,0.10869 0,-20.87469 59.79339,-0.10227 0,-20.86829 -59.79339,0.0959 0,-20.8747 m 59.79339,-83.56253 0,20.86826 -59.79339,0.0702 0,20.8747 m 59.79339,-62.68142 0,20.86827 -59.79339,0.0638 0,20.87469"
       id="path6280-1"
       inkscape:connector-curvature="0"
       sodipodi:nodetypes="cccccccccccccccccccccccccccccccccccccccccccccccccccccccccccccccc" />
    <path
       style="fill:none;stroke:#000000;stroke-width:2;stroke-linecap:butt;stroke-linejoin:miter;stroke-opacity:1;display:inline"
       d="m 264.42863,350.02331 0,12.86827 136.32437,0.006 0,-12.87467"
       id="path7675"
       inkscape:connector-curvature="0"
       sodipodi:nodetypes="cccc" />
    <path
       style="fill:none;stroke:#000000;stroke-width:2;stroke-linecap:butt;stroke-linejoin:miter;stroke-opacity:1;display:inline"
       d="m 264.42863,665.75984 0,-12.86827 136.32437,-0.006 0,12.87467"
       id="path7675-8"
       inkscape:connector-curvature="0"
       sodipodi:nodetypes="cccc" />
    <path
       style="fill:url(#radialGradient8132-1);fill-opacity:1;stroke:#000000;stroke-width:2;stroke-linecap:butt;stroke-linejoin:miter;stroke-opacity:1;display:inline"
       d="m 242.42863,425.49638 45.0811,-9.992 45.08108,0.008 45.0811,0.008 45.08109,10.008 -10e-6,166.99754 -45.08109,9.9792 -45.08109,-0.0208 -45.08109,-0.0208 -45.08109,-10.0209 z"
       id="path7695"
       inkscape:connector-curvature="0"
       sodipodi:nodetypes="ccccccccccc" />
  </g>
</svg>
