<?xml version="1.0" encoding="UTF-8" standalone="no"?>
<!-- Created with Inkscape (http://www.inkscape.org/) -->

<svg
   xmlns:dc="http://purl.org/dc/elements/1.1/"
   xmlns:cc="http://creativecommons.org/ns#"
   xmlns:rdf="http://www.w3.org/1999/02/22-rdf-syntax-ns#"
   xmlns:svg="http://www.w3.org/2000/svg"
   xmlns="http://www.w3.org/2000/svg"
   xmlns:xlink="http://www.w3.org/1999/xlink"
   xmlns:sodipodi="http://sodipodi.sourceforge.net/DTD/sodipodi-0.dtd"
   xmlns:inkscape="http://www.inkscape.org/namespaces/inkscape"
   width="744.09448819"
   height="1052.3622047"
   id="svg8261"
   version="1.1"
   inkscape:version="0.48.2 r9819"
   sodipodi:docname="tank barrel.svg">
  <defs
     id="defs8263">
    <radialGradient
       inkscape:collect="always"
       xlink:href="#linearGradient7223-2"
       id="radialGradient7350-5"
       gradientUnits="userSpaceOnUse"
       gradientTransform="matrix(1.2334912,-2.0073636,2.7710064,1.7027369,443.14749,-93.722123)"
       cx="-86.43634"
       cy="-152.63962"
       fx="-86.43634"
       fy="-152.63962"
       r="23.59407" />
    <linearGradient
       id="linearGradient7223-2">
      <stop
         style="stop-color:#6d2e19;stop-opacity:1;"
         offset="0"
         id="stop7225-1" />
      <stop
         style="stop-color:#54371b;stop-opacity:1;"
         offset="1"
         id="stop7227-4" />
    </linearGradient>
    <radialGradient
       inkscape:collect="always"
       xlink:href="#linearGradient7223-2"
       id="radialGradient7352-8"
       gradientUnits="userSpaceOnUse"
       gradientTransform="matrix(-0.13195713,1.355967,-6.7517433,-0.65705195,-1290.5131,133.01208)"
       cx="-299.97968"
       cy="-142.50374"
       fx="-299.97968"
       fy="-142.50374"
       r="23.59407" />
    <linearGradient
       id="linearGradient8165">
      <stop
         style="stop-color:#003c10;stop-opacity:1;"
         offset="0"
         id="stop8167" />
      <stop
         style="stop-color:#002b11;stop-opacity:1;"
         offset="1"
         id="stop8169" />
    </linearGradient>
    <linearGradient
       inkscape:collect="always"
       xlink:href="#linearGradient7223-2"
       id="linearGradient7354-6"
       gradientUnits="userSpaceOnUse"
       x1="-179.5266"
       y1="76.27784"
       x2="-162.99623"
       y2="76.27784" />
    <linearGradient
       id="linearGradient8172">
      <stop
         style="stop-color:#003c10;stop-opacity:1;"
         offset="0"
         id="stop8174" />
      <stop
         style="stop-color:#002b11;stop-opacity:1;"
         offset="1"
         id="stop8176" />
    </linearGradient>
    <linearGradient
       inkscape:collect="always"
       xlink:href="#linearGradient7223-2"
       id="linearGradient7356-4"
       gradientUnits="userSpaceOnUse"
       x1="-140.44678"
       y1="-20.689966"
       x2="-168.46399"
       y2="-21.026482" />
    <linearGradient
       id="linearGradient8179">
      <stop
         style="stop-color:#003c10;stop-opacity:1;"
         offset="0"
         id="stop8181" />
      <stop
         style="stop-color:#002b11;stop-opacity:1;"
         offset="1"
         id="stop8183" />
    </linearGradient>
    <radialGradient
       inkscape:collect="always"
       xlink:href="#linearGradient7223-2"
       id="radialGradient7358-6"
       gradientUnits="userSpaceOnUse"
       gradientTransform="matrix(2.612668,-0.36745048,0.10345811,0.73561388,381.1329,-135.94189)"
       cx="-216.55304"
       cy="-308.38333"
       fx="-216.55304"
       fy="-308.38333"
       r="48.940868" />
    <linearGradient
       id="linearGradient8186">
      <stop
         style="stop-color:#003c10;stop-opacity:1;"
         offset="0"
         id="stop8188" />
      <stop
         style="stop-color:#002b11;stop-opacity:1;"
         offset="1"
         id="stop8190" />
    </linearGradient>
    <linearGradient
       inkscape:collect="always"
       xlink:href="#linearGradient7283-9"
       id="linearGradient7360-8"
       gradientUnits="userSpaceOnUse"
       x1="-151.81564"
       y1="-285.33957"
       x2="-151.81564"
       y2="-235.8474" />
    <linearGradient
       id="linearGradient7283-9">
      <stop
         style="stop-color:#ff0000;stop-opacity:1;"
         offset="0"
         id="stop7285-8" />
      <stop
         style="stop-color:#aa0000;stop-opacity:1;"
         offset="1"
         id="stop7287-3" />
    </linearGradient>
    <radialGradient
       inkscape:collect="always"
       xlink:href="#linearGradient7223-2"
       id="radialGradient7362-5"
       gradientUnits="userSpaceOnUse"
       gradientTransform="matrix(2.0696347,-0.66526058,0.40623647,1.2638072,307.92678,-119.38977)"
       cx="-221.2626"
       cy="-175.40677"
       fx="-221.2626"
       fy="-175.40677"
       r="76.66169" />
    <linearGradient
       id="linearGradient8197">
      <stop
         style="stop-color:#003c10;stop-opacity:1;"
         offset="0"
         id="stop8199" />
      <stop
         style="stop-color:#002b11;stop-opacity:1;"
         offset="1"
         id="stop8201" />
    </linearGradient>
    <linearGradient
       inkscape:collect="always"
       xlink:href="#linearGradient7283-9"
       id="linearGradient7364-5"
       gradientUnits="userSpaceOnUse"
       x1="-265.98654"
       y1="-159.50861"
       x2="-265.98654"
       y2="-136.2724" />
    <linearGradient
       id="linearGradient8204">
      <stop
         style="stop-color:#ff0000;stop-opacity:1;"
         offset="0"
         id="stop8206" />
      <stop
         style="stop-color:#aa0000;stop-opacity:1;"
         offset="1"
         id="stop8208" />
    </linearGradient>
    <linearGradient
       inkscape:collect="always"
       xlink:href="#linearGradient7283-9"
       id="linearGradient7366-1"
       gradientUnits="userSpaceOnUse"
       x1="-265.98654"
       y1="-159.50861"
       x2="-265.98654"
       y2="-136.2724" />
    <linearGradient
       id="linearGradient8211">
      <stop
         style="stop-color:#ff0000;stop-opacity:1;"
         offset="0"
         id="stop8213" />
      <stop
         style="stop-color:#aa0000;stop-opacity:1;"
         offset="1"
         id="stop8215" />
    </linearGradient>
    <linearGradient
       inkscape:collect="always"
       xlink:href="#linearGradient7315-5"
       id="linearGradient7368-5"
       gradientUnits="userSpaceOnUse"
       x1="-403"
       y1="-289.63782"
       x2="-403"
       y2="-325.63782" />
    <linearGradient
       id="linearGradient7315-5">
      <stop
         style="stop-color:#000000;stop-opacity:1;"
         offset="0"
         id="stop7317-8" />
      <stop
         style="stop-color:#0e0e0e;stop-opacity:1;"
         offset="1"
         id="stop7319-4" />
    </linearGradient>
    <linearGradient
       inkscape:collect="always"
       xlink:href="#linearGradient7283-9"
       id="linearGradient7370-0"
       gradientUnits="userSpaceOnUse"
       x1="-265.98654"
       y1="-159.50861"
       x2="-265.98654"
       y2="-136.2724" />
    <linearGradient
       id="linearGradient8222">
      <stop
         style="stop-color:#ff0000;stop-opacity:1;"
         offset="0"
         id="stop8224" />
      <stop
         style="stop-color:#aa0000;stop-opacity:1;"
         offset="1"
         id="stop8226" />
    </linearGradient>
    <linearGradient
       inkscape:collect="always"
       xlink:href="#linearGradient7223-2"
       id="linearGradient7372-5"
       gradientUnits="userSpaceOnUse"
       x1="-175.52699"
       y1="179.51218"
       x2="-156.9964"
       y2="179.51218" />
    <linearGradient
       id="linearGradient8229">
      <stop
         style="stop-color:#003c10;stop-opacity:1;"
         offset="0"
         id="stop8231" />
      <stop
         style="stop-color:#002b11;stop-opacity:1;"
         offset="1"
         id="stop8233" />
    </linearGradient>
    <linearGradient
       inkscape:collect="always"
       xlink:href="#linearGradient7223-2"
       id="linearGradient5274"
       x1="-175.23399"
       y1="113.18318"
       x2="-156.62852"
       y2="113.18318"
       gradientUnits="userSpaceOnUse" />
    <linearGradient
       inkscape:collect="always"
       xlink:href="#linearGradient7223-2"
       id="linearGradient5282"
       x1="-162.25565"
       y1="-228.07001"
       x2="-150.81564"
       y2="-228.07001"
       gradientUnits="userSpaceOnUse" />
    <linearGradient
       inkscape:collect="always"
       xlink:href="#linearGradient7223-2"
       id="linearGradient5284"
       x1="-185.10088"
       y1="-228.07001"
       x2="-173.66087"
       y2="-228.07001"
       gradientUnits="userSpaceOnUse" />
    <radialGradient
       r="140.45557"
       fy="84.734283"
       fx="-398.74875"
       cy="84.734283"
       cx="-398.74875"
       gradientTransform="matrix(0.40456391,0.91450973,-2.7707138,1.2257178,654.95095,852.11016)"
       gradientUnits="userSpaceOnUse"
       id="radialGradient8085"
       xlink:href="#linearGradient7395"
       inkscape:collect="always" />
    <linearGradient
       id="linearGradient7395">
      <stop
         style="stop-color:#1b2009;stop-opacity:1"
         offset="0"
         id="stop7397" />
      <stop
         style="stop-color:#253300;stop-opacity:1"
         offset="1"
         id="stop7399" />
    </linearGradient>
    <radialGradient
       inkscape:collect="always"
       xlink:href="#linearGradient7223-2"
       id="radialGradient7983"
       cx="-532.78131"
       cy="-36.272957"
       fx="-532.78131"
       fy="-36.272957"
       r="80.662193"
       gradientTransform="matrix(0.95850911,1.6843646,-2.2516729,1.2813432,472.26913,740.73311)"
       gradientUnits="userSpaceOnUse" />
    <linearGradient
       id="linearGradient7792">
      <stop
         style="stop-color:#003c10;stop-opacity:1;"
         offset="0"
         id="stop7794" />
      <stop
         style="stop-color:#002b11;stop-opacity:1;"
         offset="1"
         id="stop7796" />
    </linearGradient>
    <radialGradient
       inkscape:collect="always"
       xlink:href="#linearGradient7223-2"
       id="radialGradient8132"
       gradientUnits="userSpaceOnUse"
       gradientTransform="matrix(3.0491911,-3.1150553,1.2536539,1.2271469,1835.02,-1823.0408)"
       cx="-566.54083"
       cy="-81.405075"
       fx="-566.54083"
       fy="-81.405075"
       r="90.662193" />
    <linearGradient
       id="linearGradient7223">
      <stop
         style="stop-color:#003c10;stop-opacity:1;"
         offset="0"
         id="stop7225" />
      <stop
         style="stop-color:#002b11;stop-opacity:1;"
         offset="1"
         id="stop7227" />
    </linearGradient>
    <radialGradient
       r="140.45557"
       fy="84.734283"
       fx="-398.74875"
       cy="84.734283"
       cx="-398.74875"
       gradientTransform="matrix(0.40456391,0.91450973,-2.7707138,1.2257178,515.52419,302.73427)"
       gradientUnits="userSpaceOnUse"
       id="radialGradient3032"
       xlink:href="#linearGradient7395"
       inkscape:collect="always" />
  </defs>
  <sodipodi:namedview
     id="base"
     pagecolor="#ffffff"
     bordercolor="#666666"
     borderopacity="1.0"
     inkscape:pageopacity="0.0"
     inkscape:pageshadow="2"
     inkscape:zoom="1"
     inkscape:cx="530.86006"
     inkscape:cy="631.86002"
     inkscape:document-units="px"
     inkscape:current-layer="g7323"
     showgrid="false"
     inkscape:window-width="1280"
     inkscape:window-height="962"
     inkscape:window-x="-8"
     inkscape:window-y="-8"
     inkscape:window-maximized="1" />
  <metadata
     id="metadata8266">
    <rdf:RDF>
      <cc:Work
         rdf:about="">
        <dc:format>image/svg+xml</dc:format>
        <dc:type
           rdf:resource="http://purl.org/dc/dcmitype/StillImage" />
        <dc:title />
      </cc:Work>
    </rdf:RDF>
  </metadata>
  <g
     inkscape:label="Layer 1"
     inkscape:groupmode="layer"
     id="layer1">
    <g
       style="display:inline"
       id="g7323"
       transform="translate(517.57763,480.51593)"
       inkscape:export-filename="C:\Users\Jack O'neill\Tank Barrel.png"
       inkscape:export-xdpi="90"
       inkscape:export-ydpi="90">
      <g
         id="g5331">
        <path
           style="fill:url(#linearGradient5284);stroke:#000000;stroke-width:2;stroke-linecap:butt;stroke-linejoin:miter;stroke-opacity:1;fill-opacity:1.0"
           d="m -184.10087,-235.84738 0,15.55478 9.44,0 0,-15.55479 z"
           id="path6379-4"
           inkscape:connector-curvature="0"
           sodipodi:nodetypes="ccccc" />
        <path
           style="fill:url(#linearGradient5282);stroke:#000000;stroke-width:2;stroke-linecap:butt;stroke-linejoin:miter;stroke-opacity:1;fill-opacity:1.0"
           d="m -161.25565,-235.84738 0,15.55478 9.44,0 0,-15.55479 z"
           id="path6379-4-5"
           inkscape:connector-curvature="0"
           sodipodi:nodetypes="ccccc" />
        <path
           style="fill:url(#radialGradient7350-5);fill-opacity:1;stroke:#000000;stroke-width:2;stroke-linecap:butt;stroke-linejoin:miter;stroke-opacity:1"
           d="m -90.26,-78.43255 41.614978,-34 4.573162,-12.57317 0,-55.11236 -42.364477,0 -3.823663,21.14633 z"
           id="path6433"
           inkscape:connector-curvature="0"
           sodipodi:nodetypes="ccccccc" />
        <path
           style="fill:url(#radialGradient7352-8);fill-opacity:1;stroke:#000000;stroke-width:2;stroke-linecap:butt;stroke-linejoin:miter;stroke-opacity:1"
           d="m -242.59186,-78.43255 -41.61498,-34 -4.57316,-12.57317 0,-55.11236 42.36447,0 3.82367,21.14633 z"
           id="path6433-2"
           inkscape:connector-curvature="0"
           sodipodi:nodetypes="ccccccc" />
        <path
           style="fill:url(#linearGradient7354-6);fill-opacity:1;stroke:#000000;stroke-width:2;stroke-linecap:butt;stroke-linejoin:miter;stroke-opacity:1"
           d="m -174.0266,-13.938679 0,180.600859 15.53037,0 0,-180.768685 z"
           id="path6453"
           inkscape:connector-curvature="0"
           sodipodi:nodetypes="ccccc" />
        <path
           style="fill:url(#linearGradient7356-4);fill-opacity:1;stroke:#000000;stroke-width:2;stroke-linecap:butt;stroke-linejoin:miter;stroke-opacity:1"
           d="m -177.3,-27.683168 0,13.537713 21.57229,0 0,-13.537713 z"
           id="path6457"
           inkscape:connector-curvature="0" />
        <rect
           style="fill:url(#radialGradient7358-6);fill-opacity:1;stroke:#000000;stroke-width:2;stroke-opacity:1"
           id="rect6497"
           width="96.881737"
           height="45.448608"
           x="-216.55305"
           y="-283.22043"
           ry="5.6608696" />
        <path
           style="fill:url(#linearGradient7360-8);fill-opacity:1;stroke:#000000;stroke-width:2;stroke-linecap:butt;stroke-linejoin:miter;stroke-opacity:1"
           d="m -184.10087,-235.84738 0,-49.49218 32.28522,0 0,49.49217 z"
           id="path6365"
           inkscape:connector-curvature="0"
           sodipodi:nodetypes="ccccc" />
        <path
           style="fill:url(#radialGradient7362-5);fill-opacity:1.0;stroke:#000000;stroke-width:2;stroke-linecap:butt;stroke-linejoin:miter;stroke-opacity:1"
           d="m -222.25391,-220.28847 111.57564,0 20.415655,20.41565 0,146.120003 -19.040425,36 -19.04042,-10 -19.04043,0 -19.04041,8 -19.04044,-8 -19.04041,0 -19.04043,10 -19.04042,-36 0,-146.344353 z"
           id="path6431"
           inkscape:connector-curvature="0"
           sodipodi:nodetypes="cccccccccccccc" />
        <path
           sodipodi:type="star"
           style="fill:url(#linearGradient7364-5);fill-opacity:1;stroke:#000000;stroke-width:2;stroke-opacity:1"
           id="path7091"
           sodipodi:sides="5"
           sodipodi:cx="-265.98654"
           sodipodi:cy="-142.60954"
           sodipodi:r1="16.899057"
           sodipodi:r2="6.3371468"
           sodipodi:arg1="-1.5707963"
           sodipodi:arg2="-0.9424778"
           inkscape:flatsided="false"
           inkscape:rounded="0"
           inkscape:randomized="0"
           d="m -265.98654,-159.5086 3.72488,11.7722 12.34708,-0.0952 -10.04498,7.18038 3.90603,11.71334 -9.93301,-7.33448 -9.93302,7.33448 3.90603,-11.71334 -10.04497,-7.18038 12.34708,0.0952 z"
           inkscape:transform-center-y="-1.6137164" />
        <path
           sodipodi:type="star"
           style="fill:url(#linearGradient7366-1);fill-opacity:1;stroke:#000000;stroke-width:2;stroke-opacity:1"
           id="path7091-9"
           sodipodi:sides="5"
           sodipodi:cx="-265.98654"
           sodipodi:cy="-142.60954"
           sodipodi:r1="16.899057"
           sodipodi:r2="6.3371468"
           sodipodi:arg1="-1.5707963"
           sodipodi:arg2="-0.9424778"
           inkscape:flatsided="false"
           inkscape:rounded="0"
           inkscape:randomized="0"
           d="m -265.98654,-159.5086 3.72488,11.7722 12.34708,-0.0952 -10.04498,7.18038 3.90603,11.71334 -9.93301,-7.33448 -9.93302,7.33448 3.90603,-11.71334 -10.04497,-7.18038 12.34708,0.0952 z"
           inkscape:transform-center-y="-1.6137164"
           transform="translate(200,0)" />
        <path
           style="fill:none;stroke:#000000;stroke-width:2;stroke-linecap:butt;stroke-linejoin:miter;stroke-opacity:1"
           d="m -136.26,-60.43255 0,-106 6.78109,1.81699 0,66.18301 21.21891,0 0,-41 5.84808,-1.56698 8.15192,72.56698 -1,11"
           id="path7111"
           inkscape:connector-curvature="0" />
        <path
           style="fill:none;stroke:#000000;stroke-width:2;stroke-linecap:butt;stroke-linejoin:miter;stroke-opacity:1"
           d="m -196.26,-60.43255 0,-106 -6.78109,1.81699 0,66.183007 -21.21891,0 0,-40.999997 -5.84808,-1.56698 -8.15192,72.566977 1,11.000003"
           id="path7111-8"
           inkscape:connector-curvature="0" />
        <path
           style="fill:none;stroke:#000000;stroke-width:2;stroke-linecap:butt;stroke-linejoin:miter;stroke-opacity:1"
           d="m -225.26261,-203.87282 4,10 110,0 3,-10"
           id="path7131"
           inkscape:connector-curvature="0" />
        <path
           sodipodi:type="arc"
           style="fill:url(#linearGradient7368-5);fill-opacity:1;stroke:#000000;stroke-width:2;stroke-opacity:1"
           id="path7133"
           sodipodi:cx="-403"
           sodipodi:cy="-307.63782"
           sodipodi:rx="18"
           sodipodi:ry="18"
           d="m -385,-307.63782 c 0,9.94113 -8.05887,18 -18,18 -9.94113,0 -18,-8.05887 -18,-18 0,-9.94112 8.05887,-18 18,-18 9.94113,0 18,8.05888 18,18 z"
           transform="translate(237.1,261)" />
        <path
           sodipodi:type="star"
           style="fill:url(#linearGradient7370-0);fill-opacity:1;stroke:#000000;stroke-width:2;stroke-opacity:1"
           id="path7091-9-3"
           sodipodi:sides="5"
           sodipodi:cx="-265.98654"
           sodipodi:cy="-142.60954"
           sodipodi:r1="16.899057"
           sodipodi:r2="6.3371468"
           sodipodi:arg1="-1.5707963"
           sodipodi:arg2="-0.9424778"
           inkscape:flatsided="false"
           inkscape:rounded="0"
           inkscape:randomized="0"
           d="m -265.98654,-159.5086 3.72488,11.7722 12.34708,-0.0952 -10.04498,7.18038 3.90603,11.71334 -9.93301,-7.33448 -9.93302,7.33448 3.90603,-11.71334 -10.04497,-7.18038 12.34708,0.0952 z"
           inkscape:transform-center-y="-1.6137164"
           transform="translate(100.05956,96.013439)" />
        <path
           style="fill:none;stroke:#000000;stroke-width:2;stroke-linecap:butt;stroke-linejoin:miter;stroke-opacity:1"
           d="m -189.7,-98.43255 c 1.13047,-15.01313 47,-13.87751 47,1 l 3,-9 0,-80 -9.15252,65 -34.84748,0 -9,-65 0,80 z"
           id="path7153"
           inkscape:connector-curvature="0"
           sodipodi:nodetypes="ccccccccc" />
        <path
           style="fill:none;stroke:#000000;stroke-width:2;stroke-linecap:butt;stroke-linejoin:miter;stroke-opacity:1"
           d="m -186.2,-178.43255 4.71559,34.05025 30.54185,0 6.05075,-34.28756"
           id="path7157"
           inkscape:connector-curvature="0" />
        <path
           style="fill:#000000;stroke:#000000;stroke-width:2;stroke-linecap:butt;stroke-linejoin:miter;stroke-opacity:1"
           d="m -180.63708,-125.44208 0,-13.10995 2.44911,-2.44911 1.51906,2.63109 0,13.36017 z"
           id="path7159"
           inkscape:connector-curvature="0" />
        <path
           style="fill:#000000;stroke:#000000;stroke-width:2;stroke-linecap:butt;stroke-linejoin:miter;stroke-opacity:1"
           d="m -152.70074,-125.44208 0,-13.10995 -2.44911,-2.44911 -1.51906,2.63109 0,13.36017 z"
           id="path7159-8"
           inkscape:connector-curvature="0" />
        <path
           style="fill:#000000;stroke:#000000;stroke-width:2;stroke-linecap:butt;stroke-linejoin:miter;stroke-opacity:1"
           d="m -174.63708,-123.44208 0,-13.10995 2.44911,-2.44911 1.51906,2.63109 0,13.36017 z"
           id="path7159-6"
           inkscape:connector-curvature="0" />
        <path
           style="fill:#000000;stroke:#000000;stroke-width:2;stroke-linecap:butt;stroke-linejoin:miter;stroke-opacity:1"
           d="m -158.70074,-123.44208 0,-13.10995 -2.44911,-2.44911 -1.51906,2.63109 0,13.36017 z"
           id="path7159-8-9"
           inkscape:connector-curvature="0" />
        <path
           style="fill:none;stroke:#000000;stroke-width:2;stroke-linecap:butt;stroke-linejoin:miter;stroke-opacity:1"
           d="m -189.7,-98.43255 0,18.884513 2.93595,0 2.93595,-6 2.93595,6 2.93595,0 2.93595,-6 2.93595,6 2.93595,0 2.93595,-6 2.93595,6 2.93595,0 2.93595,-6 2.93595,6 2.93595,0 2.93595,-6 2.93595,6 2.93595,0 0.0248,-17.884513"
           id="path7215"
           inkscape:connector-curvature="0"
           sodipodi:nodetypes="ccccccccccccccccccc" />
        <path
           style="fill:url(#linearGradient7372-5);fill-opacity:1;stroke:#000000;stroke-width:2;stroke-linecap:butt;stroke-linejoin:miter;stroke-opacity:1"
           d="m -175.027,166.66218 0,25.7 17.5266,0 0.004,-25.7 z"
           id="path7219"
           inkscape:connector-curvature="0"
           sodipodi:nodetypes="ccccc" />
        <path
           style="fill:url(#linearGradient5274);stroke:#000000;stroke-width:2;stroke-linecap:butt;stroke-linejoin:miter;stroke-opacity:1;fill-opacity:1.0"
           d="m -162.80215,116.18722 5.17362,9.67967 0,-25.36743 -7.09287,0 0,4.50606 1.58546,0 0,1.66891 0.33379,9.51279 -11.43185,0 0,-9.51279 11.09806,0"
           id="path7221"
           inkscape:connector-curvature="0"
           sodipodi:nodetypes="ccccccccccc" />
      </g>
      <rect
         style="fill:url(#radialGradient3032);fill-opacity:1;stroke:#000000;stroke-width:2;stroke-opacity:1"
         id="rect7375"
         width="279.91113"
         height="333.88043"
         x="-16.525208"
         y="-224.00522" />
      <path
         style="fill:url(#radialGradient7983);fill-opacity:1.0;stroke:#000000;stroke-width:2;stroke-linecap:butt;stroke-linejoin:miter;stroke-opacity:1;display:inline"
         d="m 43.2682,-224.01124 160.32437,0 0,333.89279 -160.32437,0 z"
         id="path6274"
         inkscape:connector-curvature="0"
         sodipodi:nodetypes="ccccc" />
      <path
         style="fill:none;stroke:#000000;stroke-width:2;stroke-linecap:butt;stroke-linejoin:miter;stroke-opacity:1;display:inline"
         d="m 43.2682,-203.14297 0,20.86828 m -59.79338,0.0188 0,20.87469 m 59.79338,-0.0253 0,20.86828 m -59.79338,-62.59241 0,-20.87469 59.79338,-0.006 0,20.86827 -59.79338,0.0124 0,20.8747 59.79338,-0.0188 0,20.86827 -59.79338,0.0253 0,20.87469 59.79338,-0.0317 0,20.86828 m -59.79338,-20.8366 0,20.87469 59.79338,-0.0381 0,20.86827 m -59.79338,-20.83018 0,20.87469 59.79338,-0.0445 0,20.868275 m -59.79338,0.0509 0,20.87469 m 59.79338,-0.0573 0,20.86827 m -59.79339,0.0637 0,20.87469 m 59.79339,-0.0702 0,20.86828 m -59.79339,0.0766 0,20.87469 m 59.79339,-0.083 0,20.86828 m -59.79338,-146.033415 0,20.874695 59.79338,-0.0509 0,20.86827 -59.79338,0.0573 -10e-6,20.87469 59.79339,-0.0638 0,20.86828 -59.79339,0.0702 0,20.87469 59.79339,-0.0766 0,20.86827 -59.79339,0.083 0,20.87469 59.79339,-0.0894 0,20.86827 m -59.79339,-20.77881 0,20.8747 59.79339,-0.0959 0,20.86828 m -59.79339,-20.77242 0,20.87469 59.79339,-0.10227 0,20.868275 -59.79339,0.10869 0,-20.874695"
         id="path6280"
         inkscape:connector-curvature="0"
         sodipodi:nodetypes="cccccccccccccccccccccccccccccccccccccccccccccccccccccccccccccccc" />
      <path
         style="fill:none;stroke:#000000;stroke-width:2;stroke-linecap:butt;stroke-linejoin:miter;stroke-opacity:1;display:inline"
         d="m 203.59257,-203.13655 0,-20.87469 59.79338,-0.006 0,20.86827 -59.79338,0.0124 0,20.8747 m 59.79338,-0.0188 0,20.86827 m -59.79338,0.0253 0,20.87469 m 59.79338,-62.6365 0,20.86828 -59.79338,0.0188 0,20.87469 59.79338,-0.0253 0,20.86828 -59.79338,0.0317 0,20.87469 m 59.79338,-0.0381 0,20.86827 m 0,20.868265 0,-20.868265 -59.79338,0.0445 0,-20.8747 59.79338,-0.0381 0,-20.86827 m -59.79338,62.655735 0,20.8747 m -1e-5,20.87469 1e-5,-20.87469 59.79338,-0.0573 0,-20.86828 -59.79338,0.0509 0,-20.874685 m 59.79338,83.428575 0,20.86828 -59.79339,0.0766 0,20.87469 m 59.79339,-0.083 0,20.86827 m 0,-41.73655 0,20.86828 -59.79339,0.083 0,20.87469 59.79339,-0.0894 0,20.86827 m -59.79339,0.0959 0,20.87469 m 59.79339,-0.10227 0,20.868275 -59.79339,0.10869 0,-20.874695 59.79339,-0.10227 0,-20.86828 -59.79339,0.0959 0,-20.8747 m 59.79339,-83.56253 0,20.86827 -59.79339,0.0702 0,20.8747 m 59.79339,-62.68142 0,20.86827 -59.79339,0.0638 0,20.87469"
         id="path6280-1"
         inkscape:connector-curvature="0"
         sodipodi:nodetypes="cccccccccccccccccccccccccccccccccccccccccccccccccccccccccccccccc" />
      <path
         style="fill:none;stroke:#000000;stroke-width:2;stroke-linecap:butt;stroke-linejoin:miter;stroke-opacity:1;display:inline"
         d="m 55.2682,-216.01123 0,12.86827 136.32437,0.006 0,-12.87467"
         id="path7675"
         inkscape:connector-curvature="0"
         sodipodi:nodetypes="cccc" />
      <path
         style="fill:none;stroke:#000000;stroke-width:2;stroke-linecap:butt;stroke-linejoin:miter;stroke-opacity:1;display:inline"
         d="m 55.2682,99.725305 0,-12.86827 136.32437,-0.006 0,12.87467"
         id="path7675-8"
         inkscape:connector-curvature="0"
         sodipodi:nodetypes="cccc" />
      <path
         style="fill:url(#radialGradient8132);fill-opacity:1.0;stroke:#000000;stroke-width:2;stroke-linecap:butt;stroke-linejoin:miter;stroke-opacity:1;display:inline"
         d="m 33.2682,-140.53816 45.0811,-9.992 45.08108,0.008 45.0811,0.008 45.08109,10.008 -1e-5,166.997535 -45.08109,9.9792 -45.08109,-0.0208 -45.08109,-0.0208 -45.08109,-10.0209 z"
         id="path7695"
         inkscape:connector-curvature="0"
         sodipodi:nodetypes="ccccccccccc" />
    </g>
  </g>
</svg>
